<?xml version="1.0" encoding="utf-8"?>
<!--
  ~
  ~ DISTRIBUTION STATEMENT C. Distribution authorized to U.S. Government Agencies
  ~ and their contractors; 2015. Other request for this document shall be referred
  ~ to DLIFLC.
  ~
  ~ WARNING: This document may contain technical data whose export is restricted
  ~ by the Arms Export Control Act (AECA) or the Export Administration Act (EAA).
  ~ Transfer of this data by any means to a non-US person who is not eligible to
  ~ obtain export-controlled data is prohibited. By accepting this data, the consignee
  ~ agrees to honor the requirements of the AECA and EAA. DESTRUCTION NOTICE: For
  ~ unclassified, limited distribution documents, destroy by any method that will
  ~ prevent disclosure of the contents or reconstruction of the document.
  ~
  ~ This material is based upon work supported under Air Force Contract No.
  ~ FA8721-05-C-0002 and/or FA8702-15-D-0001. Any opinions, findings, conclusions
  ~ or recommendations expressed in this material are those of the author(s) and
  ~ do not necessarily reflect the views of the U.S. Air Force.
  ~
  ~ © 2015 Massachusetts Institute of Technology.
  ~
  ~ The software/firmware is provided to you on an As-Is basis
  ~
  ~ Delivered to the US Government with Unlimited Rights, as defined in DFARS
  ~ Part 252.227-7013 or 7014 (Feb 2014). Notwithstanding any copyright notice,
  ~ U.S. Government rights in this work are defined by DFARS 252.227-7013 or
  ~ DFARS 252.227-7014 as detailed above. Use of this work other than as specifically
  ~ authorized by the U.S. Government may violate any copyrights that exist in this work.
  ~
  ~
  -->

<!-- Generator: Adobe Illustrator 16.0.0, SVG Export Plug-In . SVG Version: 6.00 Build 0)  -->
<!DOCTYPE svg PUBLIC "-//W3C//DTD SVG 1.1//EN" "http://www.w3.org/Graphics/SVG/1.1/DTD/svg11.dtd">
<svg version="1.1" id="Layer_1" xmlns="http://www.w3.org/2000/svg"  x="0px" y="0px"
	 width="20.114px" height="19.475px" viewBox="0 0 20.114 19.475" enable-background="new 0 0 20.114 19.475" xml:space="preserve">
<g>
	<g>
		<path fill="#D1D3D4" d="M13.676,15.93c-0.087,0-0.182-0.008-0.281-0.024c-0.348-0.054-0.76-0.188-1.223-0.399
			c-0.619,0.268-1.331,0.402-2.117,0.402c-0.777,0-1.49-0.139-2.123-0.414c-0.48,0.223-0.891,0.36-1.219,0.411
			c-0.508,0.077-0.865-0.046-1.038-0.329c-0.109-0.18-0.187-0.5,0.072-1.003c0.026-0.052,0.05-0.104,0.073-0.155
			c0.06-0.129,0.125-0.271,0.259-0.486C6.038,13.869,6,13.804,5.963,13.738c-0.566-1-0.515-2.238,0.174-4.004
			c-0.308-0.688-1.01-2.582-0.171-4.002C6.003,5.669,6.041,5.607,6.08,5.547C5.946,5.33,5.88,5.188,5.821,5.059
			C5.797,5.008,5.773,4.957,5.746,4.902C5.488,4.4,5.565,4.078,5.675,3.898c0.174-0.285,0.531-0.408,1.038-0.33
			c0.331,0.053,0.741,0.193,1.225,0.416c0.632-0.278,1.344-0.42,2.117-0.42c0.786,0,1.498,0.137,2.117,0.404
			c0.463-0.209,0.873-0.345,1.222-0.4c0.509-0.079,0.864,0.045,1.038,0.33c0.109,0.18,0.187,0.5-0.072,1.006
			c-0.026,0.053-0.051,0.104-0.075,0.154c-0.059,0.129-0.124,0.271-0.257,0.486c0.039,0.062,0.078,0.123,0.115,0.188
			c0.771,1.309,0.265,3.029-0.139,3.998c0.664,1.697,0.71,3.043,0.139,4.012c-0.037,0.064-0.076,0.127-0.115,0.188
			c0.133,0.216,0.198,0.359,0.257,0.488c0.024,0.051,0.049,0.104,0.076,0.158c0.258,0.5,0.182,0.82,0.071,1
			C14.293,15.803,14.024,15.93,13.676,15.93z M12.745,15.204c0.271,0.104,0.515,0.173,0.728,0.208
			c0.072,0.01,0.14,0.016,0.203,0.016c0.096,0,0.269-0.014,0.328-0.112c0.059-0.097,0.025-0.288-0.09-0.513
			c-0.032-0.062-0.058-0.119-0.083-0.175c-0.039-0.083-0.075-0.161-0.129-0.261C13.425,14.697,13.104,14.978,12.745,15.204z
			 M6.402,14.371c-0.053,0.096-0.09,0.174-0.127,0.257c-0.026,0.056-0.051,0.112-0.082,0.173c-0.116,0.227-0.149,0.417-0.091,0.514
			c0.06,0.1,0.231,0.113,0.329,0.113c0.063,0,0.131-0.006,0.204-0.016c0.201-0.033,0.443-0.105,0.725-0.217
			C6.995,14.969,6.675,14.693,6.402,14.371z M8.543,15.189c0.929,0.291,2.107,0.285,3.014,0.01
			c-0.472-0.256-0.979-0.572-1.502-0.936C9.561,14.603,9.035,14.925,8.543,15.189z M10.483,13.951
			c0.6,0.408,1.177,0.752,1.688,1.002c0.489-0.246,0.908-0.594,1.246-1.032c-0.122-0.177-0.275-0.382-0.464-0.624
			c-0.202-0.26-0.464-0.568-0.795-0.939C11.587,12.984,10.989,13.553,10.483,13.951z M6.685,13.924
			c0.328,0.425,0.747,0.768,1.245,1.018c0.528-0.26,1.128-0.611,1.695-0.992c-0.541-0.42-1.143-0.986-1.683-1.585
			c-0.328,0.368-0.589,0.675-0.79,0.933C6.962,13.539,6.809,13.746,6.685,13.924z M8.279,11.99c0.572,0.639,1.216,1.24,1.775,1.658
			c0.512-0.385,1.164-1,1.767-1.664c-0.455-0.498-0.929-0.994-1.306-1.391c-0.179-0.186-0.335-0.35-0.459-0.483l-0.002,0.003
			l-0.003-0.004C9.929,10.24,9.777,10.4,9.604,10.58C9.223,10.98,8.742,11.485,8.279,11.99z M12.494,11.982
			c0.356,0.396,0.638,0.727,0.854,1.005c0.142,0.181,0.264,0.343,0.368,0.489c0.438-0.752,0.428-1.803-0.021-3.131
			c-0.284,0.486-0.696,1.046-1.202,1.635h0.002L12.494,11.982z M6.446,10.342c-0.474,1.379-0.488,2.356-0.057,3.133
			c0.105-0.145,0.228-0.307,0.367-0.486c0.218-0.277,0.497-0.607,0.853-1.004H7.608l0.001-0.002
			C7.142,11.427,6.747,10.869,6.446,10.342z M6.684,9.719c0.293,0.596,0.726,1.24,1.267,1.891c0.452-0.494,0.919-0.982,1.292-1.375
			c0.185-0.193,0.347-0.363,0.472-0.496C9.586,9.602,9.42,9.428,9.23,9.229c-0.374-0.393-0.84-0.881-1.291-1.373
			C7.354,8.539,6.915,9.191,6.684,9.719z M10.395,9.738c0.127,0.137,0.294,0.311,0.483,0.51c0.37,0.389,0.829,0.871,1.276,1.358
			c0.609-0.714,1.066-1.372,1.305-1.882c-0.237-0.541-0.676-1.188-1.279-1.885c-0.45,0.492-0.916,0.982-1.29,1.375
			C10.694,9.42,10.524,9.599,10.395,9.738z M8.273,7.477C8.732,7.98,9.211,8.482,9.593,8.883c0.178,0.186,0.334,0.35,0.459,0.483
			l0.003-0.003l0.002,0.002c0.127-0.135,0.288-0.305,0.47-0.494c0.382-0.402,0.859-0.904,1.317-1.404
			c-0.58-0.627-1.24-1.232-1.787-1.64C9.513,6.234,8.855,6.844,8.273,7.477z M6.39,6C5.806,7.006,6.136,8.334,6.425,9.115
			C6.752,8.523,7.206,7.938,7.6,7.48H7.599V7.479c-0.35-0.392-0.626-0.718-0.841-0.993C6.617,6.307,6.495,6.145,6.39,6z
			 M12.519,7.467c0.397,0.457,0.857,1.041,1.189,1.637c0.312-0.895,0.563-2.15,0.009-3.105c-0.104,0.146-0.227,0.309-0.367,0.488
			c-0.213,0.271-0.485,0.594-0.831,0.979l0.002,0.002H12.519z M6.689,5.559c0.122,0.175,0.275,0.379,0.463,0.619
			C7.354,6.436,7.61,6.739,7.936,7.104c0.549-0.594,1.161-1.164,1.69-1.578c-0.565-0.378-1.162-0.727-1.69-0.986
			C7.444,4.789,7.025,5.131,6.689,5.559z M10.485,5.523c0.535,0.416,1.149,0.983,1.695,1.568c0.321-0.359,0.575-0.66,0.773-0.914
			c0.188-0.242,0.342-0.447,0.464-0.623c-0.339-0.439-0.757-0.785-1.244-1.031C11.659,4.773,11.082,5.117,10.485,5.523z
			 M8.546,4.289c0.492,0.264,1.016,0.584,1.509,0.923c0.521-0.362,1.03-0.679,1.503-0.935C10.652,4,9.477,3.992,8.546,4.289z
			 M6.432,4.047c-0.098,0-0.269,0.014-0.329,0.113c-0.059,0.097-0.026,0.289,0.09,0.516C6.225,4.737,6.249,4.793,6.275,4.85
			c0.039,0.082,0.076,0.164,0.131,0.264c0.277-0.324,0.599-0.602,0.963-0.829C7.084,4.17,6.839,4.096,6.635,4.063
			C6.562,4.052,6.495,4.047,6.432,4.047z M12.745,4.271c0.359,0.227,0.68,0.506,0.957,0.836c0.054-0.097,0.09-0.176,0.129-0.26
			c0.026-0.055,0.051-0.111,0.082-0.17c0.116-0.229,0.15-0.421,0.091-0.52c-0.06-0.098-0.232-0.111-0.328-0.111
			c-0.063,0-0.131,0.005-0.203,0.017C13.26,4.098,13.017,4.168,12.745,4.271z"/>
	</g>
	<polygon fill="#D1D3D4" points="0,0 4.714,0 3.455,1.96 3.455,17.42 13.699,17.42 16.088,15.741 14.075,19.475 0,19.475 
		1.192,17.42 1.192,1.96 	"/>
	<polygon fill="#D1D3D4" points="20.114,19.475 15.399,19.475 16.658,17.514 16.658,2.055 6.415,2.055 4.026,3.732 6.037,0 
		20.114,0 18.921,2.055 18.921,17.514 	"/>
</g>
</svg>
