<?xml version="1.0" encoding="utf-8"?>
<!--
  ~
  ~ DISTRIBUTION STATEMENT C. Distribution authorized to U.S. Government Agencies
  ~ and their contractors; 2015. Other request for this document shall be referred
  ~ to DLIFLC.
  ~
  ~ WARNING: This document may contain technical data whose export is restricted
  ~ by the Arms Export Control Act (AECA) or the Export Administration Act (EAA).
  ~ Transfer of this data by any means to a non-US person who is not eligible to
  ~ obtain export-controlled data is prohibited. By accepting this data, the consignee
  ~ agrees to honor the requirements of the AECA and EAA. DESTRUCTION NOTICE: For
  ~ unclassified, limited distribution documents, destroy by any method that will
  ~ prevent disclosure of the contents or reconstruction of the document.
  ~
  ~ This material is based upon work supported under Air Force Contract No.
  ~ FA8721-05-C-0002 and/or FA8702-15-D-0001. Any opinions, findings, conclusions
  ~ or recommendations expressed in this material are those of the author(s) and
  ~ do not necessarily reflect the views of the U.S. Air Force.
  ~
  ~ © 2015 Massachusetts Institute of Technology.
  ~
  ~ The software/firmware is provided to you on an As-Is basis
  ~
  ~ Delivered to the US Government with Unlimited Rights, as defined in DFARS
  ~ Part 252.227-7013 or 7014 (Feb 2014). Notwithstanding any copyright notice,
  ~ U.S. Government rights in this work are defined by DFARS 252.227-7013 or
  ~ DFARS 252.227-7014 as detailed above. Use of this work other than as specifically
  ~ authorized by the U.S. Government may violate any copyrights that exist in this work.
  ~
  ~
  -->

<!-- Generator: Adobe Illustrator 16.0.0, SVG Export Plug-In . SVG Version: 6.00 Build 0)  -->
<!DOCTYPE svg PUBLIC "-//W3C//DTD SVG 1.1//EN" "http://www.w3.org/Graphics/SVG/1.1/DTD/svg11.dtd">
<svg version="1.1" id="Layer_1" xmlns="http://www.w3.org/2000/svg"  x="0px" y="0px"
	 width="1024px" height="1024px" viewBox="0 0 1024 1024" enable-background="new 0 0 1024 1024" xml:space="preserve">
<g>
	<g>
		<g>
			<path fill="#FFFFFF" d="M3.29,6.886c-1.118,0-2.028,1.175-2.028,2.615V41.37c0,1.443,0.91,2.615,2.028,2.615h32.842l0.114,0.078
				l24.008,16.913l-4.47-16.991h4.93c1.116,0,2.023-1.172,2.023-2.615V9.501c0-1.44-0.907-2.615-2.023-2.615H3.29z"/>
			<path fill="#D1D3D4" d="M62.354,64L35.733,45.247H3.29C1.476,45.247,0,43.507,0,41.37V9.501c0-2.138,1.476-3.877,3.29-3.877
				h57.424C62.526,5.624,64,7.363,64,9.501V41.37c0,2.138-1.474,3.877-3.286,3.877h-3.293L62.354,64z M3.29,8.148
				c-0.312,0-0.766,0.527-0.766,1.353V41.37c0,0.826,0.453,1.353,0.766,1.353h33.238l0.438,0.306l21.187,14.924l-4.007-15.229h6.567
				c0.311,0,0.762-0.526,0.762-1.353V9.501c0-0.826-0.451-1.353-0.762-1.353H3.29z"/>
		</g>
	</g>
	<g>
		<g>
			<path fill="#FFFFFF" d="M29.517,11.326c0.52-1.262,4.124-5.669,4.381-5.927c0.258-0.258,1.933-2.191,3.994-3.157
				c2.062-0.966,3.608-1.546,8.44-0.644c4.832,0.902,7.924,4.574,9.728,9.664s-0.386,10.824-1.997,15.719
				c-1.61,4.896-5.734,11.597-7.215,13.207c-1.482,1.612-3.609,2.642-4.832,2.964c-1.225,0.323-0.838,0.258-2.824,1.869
				c-1.986,1.61-3.877,2.126-5.809,1.61c-1.934-0.516-1.805-3.802-1.805-5.09s-0.645-3.672-0.645-3.672s-1.61-4.316-0.322-5.928
				c1.288-1.61,2.512-1.546,3.092-2.576c0.579-1.031-0.321-2.19,0.064-3.994c0.387-1.805-0.082-3.161-1.03-4.575
				c-0.95-1.414-3.737-3.479-3.995-5.54C28.487,13.194,29.517,11.326,29.517,11.326z"/>
			<path fill="#27AAE1" d="M34.815,47.833c-0.56,0-1.129-0.076-1.692-0.226c-2.581-0.688-2.562-4.3-2.555-5.842l0-0.225
				c0-0.926-0.421-2.7-0.598-3.365c-0.335-0.91-1.686-4.941-0.147-6.864c0.797-0.997,1.597-1.461,2.181-1.8
				c0.46-0.267,0.687-0.405,0.82-0.642c0.117-0.21,0.071-0.536-0.02-1.097c-0.112-0.689-0.252-1.548-0.023-2.614
				c0.291-1.356,0.043-2.422-0.882-3.801c-0.261-0.388-0.743-0.895-1.253-1.43c-1.261-1.325-2.69-2.827-2.905-4.547
				c-0.273-2.186,0.681-4.144,0.862-4.491c0.678-1.545,4.333-5.959,4.58-6.206l0.104-0.109c0.533-0.569,2.154-2.3,4.176-3.248
				c1.438-0.674,2.707-1.189,4.844-1.189c1.15,0,2.528,0.152,4.211,0.467c4.857,0.907,8.389,4.378,10.494,10.319
				c1.787,5.042-0.027,10.482-1.627,15.282l-0.363,1.09c-1.653,5.027-5.809,11.812-7.431,13.575
				c-1.556,1.691-3.792,2.854-5.318,3.257c-0.671,0.177-0.671,0.177-1.261,0.685c-0.273,0.235-0.643,0.553-1.184,0.992
				C38.146,47.17,36.506,47.833,34.815,47.833z M42.308,2.158c-1.728,0-2.7,0.396-3.986,0.998c-1.67,0.783-3.092,2.301-3.559,2.8
				c-0.067,0.071-0.117,0.125-0.149,0.156c-0.36,0.384-3.741,4.577-4.162,5.598l-0.049,0.103c-0.007,0.013-0.867,1.622-0.655,3.317
				c0.133,1.061,1.37,2.361,2.364,3.405c0.57,0.6,1.11,1.166,1.467,1.697c0.821,1.223,1.697,2.937,1.18,5.349
				c-0.148,0.694-0.051,1.291,0.043,1.867c0.119,0.738,0.256,1.575-0.215,2.411c-0.409,0.727-0.998,1.068-1.566,1.398
				c-0.52,0.301-1.056,0.612-1.617,1.313c-0.633,0.791-0.088,3.418,0.479,4.945l0.028,0.088c0.07,0.258,0.68,2.554,0.68,3.936v0.234
				c-0.006,0.983-0.02,3.594,1.055,3.88c1.631,0.436,3.188-0.021,4.912-1.419c0.521-0.423,0.877-0.729,1.139-0.954
				c0.837-0.72,1.006-0.828,2.064-1.107c1.003-0.264,2.988-1.193,4.346-2.67c1.441-1.567,5.48-8.219,7-12.84l0.364-1.098
				c1.498-4.491,3.195-9.581,1.64-13.969c-1.847-5.212-4.861-8.243-8.961-9.008C44.589,2.3,43.333,2.158,42.308,2.158z"/>
		</g>
		<path fill="#27AAE1" d="M49.33,8.223c-2.669-2.153-7.952-2.508-8.764-2.201c-1.882,0.212-4.298,1.269-5.468,2.373
			c-1.294,1.222-2.287,3.263-2.357,4.266c-0.08,1.155-0.194,3.468,1.352,5.557c1.548,2.088,1.32,2.035,1.456,3.787
			c0.216,2.776,5.116-0.058,4.012,4.043c-0.312,1.16-1.919,2.062-3.641,3.204c-0.624,1.784-1.536,2.32-2.676,2.93
			c-1.446,0.772-1.573,1.634-1.216,2.505c0.425,1.041,2.645,0.264,3.922-1.852c1.042-1.727,1.275-1.546,2.648-1.469
			s1.914,0.31,2.688,0c0.773-0.309,5.691-5.869,3.294-9.814c-2.397-3.944-4.104-2.504-5.981-2.406
			c-3.52,0.184-2.508-4.539-2.508-4.539s0.148,0.534,1.824,0.341c0.284-0.032,2.126-0.193,1.458-2.471
			c-0.35-1.192,3.771-0.773,5.163-0.232c1.392,0.542,2.627,2.005,3.716,4.911c3.444,9.188-4.032,17.459-4.194,18.542
			c-0.163,1.083,4.422-0.483,6.818-9.764c0.879-3.4,1.766-6.432,1.842-8.976C52.819,13.559,52.701,10.943,49.33,8.223z"/>
	</g>
	<path fill="#27AAE1" d="M12.123,40.037v-3.03c6.265,0,11.362-5.097,11.362-11.361c0-6.265-5.097-11.362-11.362-11.362v-3.03
		c7.936,0,14.392,6.456,14.392,14.392S20.059,40.037,12.123,40.037z"/>
	<path fill="#27AAE1" d="M6.208,35.33v-3.03c3.669,0,6.655-2.985,6.655-6.654c0-3.669-2.985-6.655-6.655-6.655v-3.03
		c5.34,0,9.685,4.344,9.685,9.685C15.892,30.985,11.548,35.33,6.208,35.33z"/>
</g>
</svg>
