<?xml version="1.0" encoding="utf-8"?>
<!--
  ~
  ~ DISTRIBUTION STATEMENT C. Distribution authorized to U.S. Government Agencies
  ~ and their contractors; 2015. Other request for this document shall be referred
  ~ to DLIFLC.
  ~
  ~ WARNING: This document may contain technical data whose export is restricted
  ~ by the Arms Export Control Act (AECA) or the Export Administration Act (EAA).
  ~ Transfer of this data by any means to a non-US person who is not eligible to
  ~ obtain export-controlled data is prohibited. By accepting this data, the consignee
  ~ agrees to honor the requirements of the AECA and EAA. DESTRUCTION NOTICE: For
  ~ unclassified, limited distribution documents, destroy by any method that will
  ~ prevent disclosure of the contents or reconstruction of the document.
  ~
  ~ This material is based upon work supported under Air Force Contract No.
  ~ FA8721-05-C-0002 and/or FA8702-15-D-0001. Any opinions, findings, conclusions
  ~ or recommendations expressed in this material are those of the author(s) and
  ~ do not necessarily reflect the views of the U.S. Air Force.
  ~
  ~ © 2015 Massachusetts Institute of Technology.
  ~
  ~ The software/firmware is provided to you on an As-Is basis
  ~
  ~ Delivered to the US Government with Unlimited Rights, as defined in DFARS
  ~ Part 252.227-7013 or 7014 (Feb 2014). Notwithstanding any copyright notice,
  ~ U.S. Government rights in this work are defined by DFARS 252.227-7013 or
  ~ DFARS 252.227-7014 as detailed above. Use of this work other than as specifically
  ~ authorized by the U.S. Government may violate any copyrights that exist in this work.
  ~
  ~
  -->

<!-- Generator: Adobe Illustrator 16.0.0, SVG Export Plug-In . SVG Version: 6.00 Build 0)  -->
<!DOCTYPE svg PUBLIC "-//W3C//DTD SVG 1.1//EN" "http://www.w3.org/Graphics/SVG/1.1/DTD/svg11.dtd">
<svg version="1.1" id="Layer_1" xmlns="http://www.w3.org/2000/svg"  x="0px" y="0px"
	 width="64px" height="64px" viewBox="0 0 64 64" enable-background="new 0 0 64 64" xml:space="preserve">
<g>
	<g>
		<path fill="#FFFFFF" d="M3.562,7.176c-1.113,0-2.019,1.169-2.019,2.602v31.707c0,1.436,0.905,2.602,2.019,2.602h32.674
			l0.114,0.078l23.886,16.828l-4.448-16.906h4.905c1.11,0,2.014-1.166,2.014-2.602V9.778c0-1.433-0.903-2.602-2.014-2.602H3.562z"/>
		<path fill="#D1D3D4" d="M62.326,64L35.841,45.342H3.562c-1.806,0-3.273-1.73-3.273-3.857V9.778c0-2.127,1.468-3.857,3.273-3.857
			h57.131c1.803,0,3.27,1.73,3.27,3.857v31.707c0,2.127-1.467,3.857-3.27,3.857h-3.276L62.326,64z M3.562,8.433
			c-0.312,0-0.762,0.524-0.762,1.345v31.707c0,0.822,0.45,1.346,0.762,1.346h33.068l0.437,0.303l21.078,14.85l-3.986-15.152h6.534
			c0.31,0,0.757-0.523,0.757-1.346V9.778c0-0.821-0.447-1.345-0.757-1.345H3.562z"/>
	</g>
</g>
<g>
	<g>
		<path fill="#FFFFFF" d="M16.985,12.384c0.573-1.391,4.547-6.25,4.833-6.534c0.283-0.284,2.131-2.417,4.402-3.482
			c2.274-1.066,3.979-1.704,9.308-0.708c5.328,0.993,8.737,5.042,10.726,10.656c1.99,5.61-0.425,11.933-2.2,17.333
			c-1.777,5.398-6.323,12.789-7.957,14.564s-3.979,2.91-5.327,3.266c-1.351,0.355-0.924,0.285-3.115,2.062
			c-2.189,1.773-4.274,2.344-6.404,1.773c-2.132-0.566-1.99-4.191-1.99-5.609c0-1.422-0.711-4.053-0.711-4.053
			s-1.774-4.758-0.354-6.533c1.422-1.777,2.769-1.705,3.409-2.843c0.64-1.137-0.354-2.415,0.071-4.402
			c0.427-1.99-0.091-3.487-1.135-5.046c-1.048-1.56-4.123-3.836-4.404-6.11C15.849,14.445,16.985,12.384,16.985,12.384z"/>
		<path fill="#27AAE1" d="M22.829,52.641c-0.618,0-1.245-0.084-1.868-0.252c-2.845-0.758-2.825-4.738-2.816-6.439l0.002-0.246
			c0-1.023-0.465-2.979-0.658-3.713c-0.371-1.002-1.861-5.447-0.162-7.57c0.879-1.1,1.759-1.609,2.403-1.982
			c0.506-0.294,0.756-0.447,0.904-0.708c0.13-0.23,0.078-0.592-0.021-1.208c-0.125-0.763-0.277-1.708-0.026-2.884
			c0.322-1.497,0.048-2.67-0.973-4.191c-0.286-0.428-0.818-0.986-1.38-1.578c-1.392-1.46-2.967-3.115-3.202-5.014
			c-0.305-2.407,0.749-4.568,0.949-4.951c0.747-1.704,4.779-6.571,5.05-6.842l0.114-0.121c0.588-0.628,2.375-2.537,4.604-3.581
			c1.585-0.743,2.985-1.312,5.341-1.312c1.269,0,2.787,0.168,4.642,0.515c5.358,1.001,9.252,4.828,11.573,11.377
			c1.971,5.561-0.029,11.561-1.796,16.853l-0.398,1.204c-1.823,5.543-6.404,13.023-8.194,14.969
			c-1.717,1.865-4.181,3.146-5.864,3.588c-0.738,0.197-0.738,0.197-1.39,0.754c-0.302,0.262-0.706,0.611-1.305,1.096
			C26.5,51.909,24.691,52.641,22.829,52.641z M31.09,2.274c-1.904,0-2.979,0.438-4.396,1.103c-1.841,0.861-3.409,2.537-3.924,3.086
			c-0.073,0.08-0.129,0.136-0.163,0.172c-0.398,0.425-4.128,5.046-4.592,6.173l-0.055,0.114c-0.009,0.013-0.956,1.788-0.721,3.657
			c0.146,1.171,1.51,2.604,2.605,3.756c0.629,0.661,1.224,1.286,1.618,1.872c0.904,1.348,1.871,3.237,1.3,5.898
			c-0.163,0.765-0.056,1.422,0.048,2.06c0.131,0.813,0.282,1.736-0.237,2.658c-0.452,0.799-1.1,1.176-1.727,1.541
			c-0.573,0.332-1.166,0.676-1.784,1.447c-0.669,0.84-0.122,3.705,0.528,5.453l0.032,0.1c0.077,0.281,0.75,2.814,0.75,4.34
			l-0.002,0.258c-0.005,1.082-0.02,3.961,1.164,4.277c1.797,0.48,3.515-0.021,5.417-1.566c0.575-0.465,0.967-0.803,1.258-1.053
			c0.92-0.791,1.107-0.91,2.274-1.219c1.104-0.291,3.292-1.316,4.791-2.943c1.59-1.729,6.042-9.064,7.719-14.159l0.403-1.21
			c1.649-4.954,3.521-10.566,1.807-15.403c-2.037-5.746-5.36-9.088-9.881-9.933C33.605,2.432,32.222,2.274,31.09,2.274z"/>
	</g>
	<path fill="#27AAE1" d="M38.833,8.964c-2.942-2.378-8.768-2.766-9.664-2.429c-2.074,0.237-4.738,1.4-6.028,2.619
		c-1.427,1.346-2.521,3.596-2.599,4.704c-0.089,1.272-0.216,3.825,1.49,6.127c1.705,2.302,1.455,2.242,1.604,4.176
		c0.239,3.06,5.644-0.065,4.424,4.458c-0.345,1.28-2.115,2.272-4.015,3.532c-0.687,1.968-1.692,2.56-2.949,3.231
		c-1.595,0.852-1.734,1.799-1.34,2.76c0.467,1.148,2.916,0.293,4.324-2.039c1.147-1.906,1.406-1.707,2.921-1.621
		c1.514,0.086,2.11,0.342,2.963,0s6.275-6.471,3.631-10.821c-2.643-4.35-4.524-2.761-6.594-2.653
		c-3.882,0.203-3.952-5.836-3.952-5.836s1.35,1.421,3.198,1.206c0.312-0.034,2.343-0.211,1.605-2.724
		c-0.386-1.313,4.16-0.851,5.695-0.256c1.533,0.599,2.896,2.211,4.096,5.417c3.799,10.131-4.445,19.252-4.624,20.446
		c-0.181,1.195,4.876-0.531,7.519-10.766c0.97-3.751,1.947-7.094,2.031-9.898C42.682,14.847,42.55,11.962,38.833,8.964z"/>
</g>
<g>
	<polygon fill="#006838" points="29.821,49.745 56.379,0.363 28.41,33.643 11.948,19.176 	"/>
	<path fill="#FFFFFF" d="M29.835,50.764L9.947,16.748l18.401,16.171l27.64-32.871l0.83,0.558L29.835,50.764z M13.949,21.604
		l15.859,27.124L53.197,5.099L28.473,34.366L13.949,21.604z"/>
</g>
</svg>
