<?xml version="1.0" encoding="utf-8"?>
<!--
  ~
  ~ DISTRIBUTION STATEMENT C. Distribution authorized to U.S. Government Agencies
  ~ and their contractors; 2015. Other request for this document shall be referred
  ~ to DLIFLC.
  ~
  ~ WARNING: This document may contain technical data whose export is restricted
  ~ by the Arms Export Control Act (AECA) or the Export Administration Act (EAA).
  ~ Transfer of this data by any means to a non-US person who is not eligible to
  ~ obtain export-controlled data is prohibited. By accepting this data, the consignee
  ~ agrees to honor the requirements of the AECA and EAA. DESTRUCTION NOTICE: For
  ~ unclassified, limited distribution documents, destroy by any method that will
  ~ prevent disclosure of the contents or reconstruction of the document.
  ~
  ~ This material is based upon work supported under Air Force Contract No.
  ~ FA8721-05-C-0002 and/or FA8702-15-D-0001. Any opinions, findings, conclusions
  ~ or recommendations expressed in this material are those of the author(s) and
  ~ do not necessarily reflect the views of the U.S. Air Force.
  ~
  ~ © 2015 Massachusetts Institute of Technology.
  ~
  ~ The software/firmware is provided to you on an As-Is basis
  ~
  ~ Delivered to the US Government with Unlimited Rights, as defined in DFARS
  ~ Part 252.227-7013 or 7014 (Feb 2014). Notwithstanding any copyright notice,
  ~ U.S. Government rights in this work are defined by DFARS 252.227-7013 or
  ~ DFARS 252.227-7014 as detailed above. Use of this work other than as specifically
  ~ authorized by the U.S. Government may violate any copyrights that exist in this work.
  ~
  ~
  -->

<!-- Generator: Adobe Illustrator 16.0.0, SVG Export Plug-In . SVG Version: 6.00 Build 0)  -->
<!DOCTYPE svg PUBLIC "-//W3C//DTD SVG 1.1//EN" "http://www.w3.org/Graphics/SVG/1.1/DTD/svg11.dtd">
<svg version="1.1" id="Layer_1" xmlns="http://www.w3.org/2000/svg"  x="0px" y="0px"
	 width="27.346px" height="27.3px" viewBox="0 0 27.346 27.3" enable-background="new 0 0 27.346 27.3" xml:space="preserve">
<g>
	<path fill="#FFFFFF" d="M26.092,2.809H1.256c-0.589,0-1.066,0.59-1.066,1.32v13.783c0,0.729,0.478,1.32,1.066,1.32h14.145
		l10.807,7.613l-2.002-7.613h1.887c0.588,0,1.064-0.592,1.064-1.32V4.129C27.157,3.398,26.68,2.809,26.092,2.809z"/>
	<path fill="#D1D3D4" d="M26.524,27.3L15.34,19.422H1.256C0.563,19.422,0,18.744,0,17.912V4.129c0-0.832,0.563-1.51,1.256-1.51
		h24.836c0.691,0,1.254,0.678,1.254,1.51v13.783c0,0.832-0.562,1.51-1.254,1.51h-1.642L26.524,27.3z M1.256,2.998
		c-0.483,0-0.877,0.508-0.877,1.131v13.783c0,0.624,0.394,1.131,0.877,1.131H15.46l0.049,0.034l10.384,7.314l-1.934-7.349h2.133
		c0.482,0,0.875-0.507,0.875-1.131V4.129c0-0.623-0.393-1.131-0.875-1.131H1.256z"/>
</g>
<polyline fill="#27AAE1" points="11.184,20.787 20.557,0 10.629,13.721 5.086,8.217 "/>
</svg>
