<?xml version="1.0" encoding="utf-8"?>
<!--
  ~
  ~ DISTRIBUTION STATEMENT C. Distribution authorized to U.S. Government Agencies
  ~ and their contractors; 2015. Other request for this document shall be referred
  ~ to DLIFLC.
  ~
  ~ WARNING: This document may contain technical data whose export is restricted
  ~ by the Arms Export Control Act (AECA) or the Export Administration Act (EAA).
  ~ Transfer of this data by any means to a non-US person who is not eligible to
  ~ obtain export-controlled data is prohibited. By accepting this data, the consignee
  ~ agrees to honor the requirements of the AECA and EAA. DESTRUCTION NOTICE: For
  ~ unclassified, limited distribution documents, destroy by any method that will
  ~ prevent disclosure of the contents or reconstruction of the document.
  ~
  ~ This material is based upon work supported under Air Force Contract No.
  ~ FA8721-05-C-0002 and/or FA8702-15-D-0001. Any opinions, findings, conclusions
  ~ or recommendations expressed in this material are those of the author(s) and
  ~ do not necessarily reflect the views of the U.S. Air Force.
  ~
  ~ © 2015 Massachusetts Institute of Technology.
  ~
  ~ The software/firmware is provided to you on an As-Is basis
  ~
  ~ Delivered to the US Government with Unlimited Rights, as defined in DFARS
  ~ Part 252.227-7013 or 7014 (Feb 2014). Notwithstanding any copyright notice,
  ~ U.S. Government rights in this work are defined by DFARS 252.227-7013 or
  ~ DFARS 252.227-7014 as detailed above. Use of this work other than as specifically
  ~ authorized by the U.S. Government may violate any copyrights that exist in this work.
  ~
  ~
  -->

<!-- Generator: Adobe Illustrator 16.0.0, SVG Export Plug-In . SVG Version: 6.00 Build 0)  -->
<!DOCTYPE svg PUBLIC "-//W3C//DTD SVG 1.1//EN" "http://www.w3.org/Graphics/SVG/1.1/DTD/svg11.dtd">
<svg version="1.1" id="Layer_1" xmlns="http://www.w3.org/2000/svg"  x="0px" y="0px"
	 width="146.021px" height="27.622px" viewBox="0 0 146.021 27.622" enable-background="new 0 0 146.021 27.622"
	 xml:space="preserve">
<g>
	<g>
		<path fill="#FFFFFF" d="M26.185,3.131H1.349c-0.589,0-1.066,0.59-1.066,1.32v13.783c0,0.729,0.478,1.32,1.066,1.32h14.145
			l10.808,7.613l-2.003-7.613h1.887c0.588,0,1.064-0.592,1.064-1.32V4.451C27.25,3.721,26.773,3.131,26.185,3.131z"/>
		<path fill="#D1D3D4" d="M26.617,27.622l-11.183-7.878H1.349c-0.692,0-1.256-0.678-1.256-1.51V4.451c0-0.833,0.563-1.51,1.256-1.51
			h24.836c0.691,0,1.254,0.677,1.254,1.51v13.783c0,0.832-0.562,1.51-1.254,1.51h-1.641L26.617,27.622z M1.349,3.32
			c-0.483,0-0.877,0.507-0.877,1.131v13.783c0,0.624,0.394,1.131,0.877,1.131h14.205l0.049,0.034l10.383,7.314l-1.933-7.349h2.132
			c0.482,0,0.875-0.507,0.875-1.131V4.451c0-0.624-0.393-1.131-0.875-1.131H1.349z"/>
	</g>
	<polyline fill="#27AAE1" points="16.691,7.684 22.291,7.324 14.187,13.238 17.765,13.289 0.283,25.894 10.864,15.674 5.13,16.178 
		12.537,11.008 9.175,10.902 24.445,0 	"/>
	<g>
		<path fill="#FFFFFF" d="M36.853,17.712c-0.335,0-0.729-0.02-1.044-0.079V4.297l0.118-0.118h7.801
			c0.079,0.236,0.119,0.571,0.119,0.828c0,0.689-0.394,0.965-1.182,0.965h-2.896c-0.729,0-1.339,0-1.891-0.02
			c0,0.788,0.02,1.576,0.02,2.325v1.733c0.295-0.02,0.571-0.02,0.827-0.02h3.959c0.079,0.275,0.099,0.65,0.099,0.867
			c0,0.236-0.02,0.61-0.099,0.886h-3.959h-0.827v5.89C37.562,17.692,37.188,17.712,36.853,17.712z"/>
		<path fill="#FFFFFF" d="M54.64,15.82c0,0.217-0.02,0.572-0.059,0.828c-0.118,0.67-0.611,1.004-1.359,1.004H48.08
			c-0.709,0-1.221-0.453-1.221-1.299V4.218L46.996,4.1h0.788c0.867,0,1.182,0.414,1.182,1.339V15.9c0.61-0.06,1.221-0.08,1.753-0.08
			H54.64z"/>
		<path fill="#FFFFFF" d="M59.944,14.363L58.9,17.652c-0.256,0.06-0.591,0.08-0.906,0.08c-0.375,0-0.749-0.06-1.024-0.139
			l-0.059-0.098l4.452-13.317C61.677,4.12,62.229,4.1,62.564,4.1c0.334,0,0.886,0.02,1.182,0.079l4.413,13.317
			c-0.295,0.196-0.768,0.275-1.221,0.275c-0.65,0-0.985-0.236-1.241-1.104l-0.729-2.305c-0.334,0-1.024,0.02-1.182,0.02h-2.699
			C60.929,14.383,60.279,14.363,59.944,14.363z M60.476,12.669c0.315,0,0.847-0.02,1.005-0.02h1.97c0.138,0,0.67,0.02,0.985,0.02
			l-0.906-2.856c-0.354-1.143-0.768-2.521-1.044-3.566h-0.099c-0.197,0.887-0.551,2.127-0.768,2.856L60.476,12.669z"/>
		<path fill="#FFFFFF" d="M71.315,14.797c1.143,0.748,2.6,1.34,3.959,1.34c1.596,0,2.502-0.77,2.521-1.852
			c0-0.927-0.65-1.636-1.792-2.128l-2.325-1.004c-1.655-0.709-2.699-1.733-2.699-3.408c0-2.147,1.812-3.821,4.452-3.821
			c1.635,0,3.152,0.512,4.176,1.024c-0.02,0.591-0.335,1.241-0.769,1.635c-1.024-0.512-2.364-0.926-3.369-0.926
			c-1.458,0-2.364,0.808-2.364,1.852c0,0.867,0.67,1.359,1.635,1.773l2.285,0.985c1.694,0.709,2.955,1.911,2.955,3.664
			c0,2.266-1.576,3.959-4.826,3.959c-1.635,0-3.408-0.551-4.728-1.477C70.488,15.801,70.882,15.151,71.315,14.797z"/>
		<path fill="#FFFFFF" d="M90.958,13.024c0-0.552,0.02-0.926,0.02-1.458c-0.197,0-0.926,0.02-1.104,0.02h-3.329
			c-0.177,0-0.926-0.02-1.123-0.02c0,0.532,0.021,0.906,0.021,1.458v4.609c-0.316,0.06-0.729,0.079-1.064,0.079
			c-0.295,0-0.729-0.02-1.024-0.079V4.179C83.65,4.12,84.083,4.1,84.378,4.1c0.335,0,0.748,0.02,1.064,0.079v4.176
			c0,0.552-0.021,0.926-0.021,1.458c0.197,0,0.946-0.02,1.123-0.02h3.329c0.178,0,0.906,0.02,1.104,0.02
			c0-0.532-0.02-0.906-0.02-1.458V4.179C91.273,4.12,91.687,4.1,92.001,4.1c0.316,0,0.749,0.02,1.064,0.079v13.454
			c-0.335,0.06-0.709,0.079-1.044,0.079s-0.729-0.02-1.063-0.079V13.024z"/>
		<path fill="#FFFFFF" d="M102.029,5.617c-2.068,0-3.152,1.872-3.152,5.358c0,3.25,1.222,5.083,3.27,5.083
			c1.223,0,2.385-0.552,3.527-1.497c0.453,0.295,0.906,0.866,1.043,1.359c-1.083,1.083-2.895,1.969-4.924,1.969
			c-3.763,0-5.122-3.427-5.122-6.914c0-4.905,2.502-7.052,5.397-7.052c2.936,0,4.748,1.852,4.748,3.841
			c0,0.709-0.336,1.182-1.183,1.182c-0.315,0-0.532-0.039-0.866-0.118C104.806,7.331,104.156,5.617,102.029,5.617z"/>
		<path fill="#FFFFFF" d="M112.085,14.363l-1.043,3.289c-0.257,0.06-0.592,0.08-0.906,0.08c-0.375,0-0.749-0.06-1.025-0.139
			l-0.059-0.098l4.452-13.317c0.315-0.059,0.866-0.079,1.202-0.079c0.334,0,0.886,0.02,1.182,0.079l4.412,13.317
			c-0.295,0.196-0.768,0.275-1.221,0.275c-0.65,0-0.985-0.236-1.242-1.104l-0.729-2.305c-0.334,0-1.023,0.02-1.182,0.02h-2.699
			C113.071,14.383,112.421,14.363,112.085,14.363z M112.618,12.669c0.315,0,0.847-0.02,1.005-0.02h1.97
			c0.138,0,0.67,0.02,0.985,0.02l-0.906-2.856c-0.355-1.143-0.769-2.521-1.045-3.566h-0.098c-0.197,0.887-0.552,2.127-0.769,2.856
			L112.618,12.669z"/>
		<path fill="#FFFFFF" d="M129.607,11.724c0.65,0.236,1.123,0.906,1.399,1.674l0.866,2.305c0.197,0.531,0.434,1.063,0.887,1.418
			c-0.275,0.414-0.887,0.65-1.418,0.65c-0.788,0-1.064-0.434-1.379-1.281l-0.985-2.659c-0.335-0.906-0.769-1.616-1.989-1.616h-1.615
			v5.417c-0.315,0.06-0.709,0.079-1.045,0.079c-0.314,0-0.729-0.02-1.023-0.079V4.297l0.117-0.138
			c1.479-0.02,2.896-0.059,4.236-0.059c2.738,0,4.471,1.418,4.471,4.038C132.128,9.951,131.045,11.271,129.607,11.724z
			 M125.373,10.542c0.768-0.02,1.635-0.039,2.187-0.039c1.931,0,2.403-1.222,2.403-2.364c0-1.202-0.473-2.383-2.403-2.383
			c-0.571,0-1.517,0-2.187-0.02V10.542z"/>
		<path fill="#FFFFFF" d="M143.777,16.727c-0.848,0.71-2.385,1.006-3.428,1.006c-1.596,0-2.621-0.04-4.334-0.08l-0.119-0.137V4.297
			l0.119-0.138c1.713-0.059,2.738-0.059,4.334-0.059c1.043,0,2.58,0.295,3.428,1.004c1.772,1.458,2.088,3.526,2.088,5.812
			C145.865,13.221,145.569,15.27,143.777,16.727z M140.349,5.794c-0.828,0-1.479-0.02-2.364-0.02v10.263c0.886-0.02,1.536,0,2.364,0
			c2.915,0,3.348-2.797,3.348-5.121C143.697,8.552,143.264,5.794,140.349,5.794z"/>
	</g>
</g>
</svg>
